<svg width="33" height="16" viewBox="0 0 33 16" fill="none" xmlns="http://www.w3.org/2000/svg">
<path d="M31.4277 6.97559C31.98 6.97559 32.4277 7.4233 32.4277 7.97559C32.4277 8.52787 31.98 8.97559 31.4277 8.97559V6.97559ZM1.02214 8.68269C0.631618 8.29217 0.631618 7.659 1.02214 7.26848L7.3861 0.904518C7.77663 0.513994 8.40979 0.513994 8.80032 0.904518C9.19084 1.29504 9.19084 1.92821 8.80032 2.31873L3.14346 7.97559L8.80032 13.6324C9.19084 14.023 9.19084 14.6561 8.80032 15.0467C8.40979 15.4372 7.77663 15.4372 7.3861 15.0467L1.02214 8.68269ZM31.4277 8.97559L1.72925 8.97559V6.97559L31.4277 6.97559V8.97559Z" fill="white"/>
</svg>
