<svg width="26" height="27" viewBox="0 0 26 27" fill="none" xmlns="http://www.w3.org/2000/svg">
<path fill-rule="evenodd" clip-rule="evenodd" d="M6.875 0C7.35825 0 7.75 0.391751 7.75 0.875V3.5H18.25V0.875C18.25 0.391751 18.6418 0 19.125 0C19.6082 0 20 0.391751 20 0.875V3.5H23.2083C24.3359 3.5 25.25 4.41409 25.25 5.54167V24.2083C25.25 25.3359 24.3359 26.25 23.2083 26.25H2.79167C1.66409 26.25 0.75 25.3359 0.75 24.2083V5.54167C0.75 4.41409 1.66408 3.5 2.79167 3.5H6V0.875C6 0.391751 6.39175 0 6.875 0ZM2.79167 5.25C2.63058 5.25 2.5 5.38058 2.5 5.54167V9.33333H23.5V5.54167C23.5 5.38058 23.3694 5.25 23.2083 5.25H2.79167ZM23.5 11.0833H2.5V24.2083C2.5 24.3694 2.63058 24.5 2.79167 24.5H23.2083C23.3694 24.5 23.5 24.3694 23.5 24.2083V11.0833Z" fill="#333333"/>
</svg>
