<svg width="29" height="29" viewBox="0 0 29 29" fill="none" xmlns="http://www.w3.org/2000/svg">
<path fill-rule="evenodd" clip-rule="evenodd" d="M4.29167 5.5809C4.13058 5.5809 4 5.71149 4 5.87257V20.4559C4 20.617 4.13058 20.7476 4.29167 20.7476H7.20833C7.69158 20.7476 8.08333 21.1393 8.08333 21.6226V25.3435L12.4229 21.0039C12.587 20.8398 12.8096 20.7476 13.0417 20.7476H24.7083C24.8694 20.7476 25 20.617 25 20.4559V5.87257C25 5.71149 24.8694 5.5809 24.7083 5.5809H4.29167ZM2.25 5.87257C2.25 4.74499 3.16409 3.8309 4.29167 3.8309H24.7083C25.8359 3.8309 26.75 4.74499 26.75 5.87257V20.4559C26.75 21.5835 25.8359 22.4976 24.7083 22.4976H13.4041L9.23534 26.6663C8.91654 26.9851 8.48415 27.1642 8.03329 27.1642C7.09443 27.1642 6.33333 26.4031 6.33333 25.4643V22.4976H4.29167C3.16409 22.4976 2.25 21.5835 2.25 20.4559V5.87257Z" fill="#202020"/>
</svg>
