<svg width="29" height="31" viewBox="0 0 29 31" fill="none" xmlns="http://www.w3.org/2000/svg">
<path d="M14.5013 17.8211C16.1697 17.8211 17.5221 16.422 17.5221 14.6961C17.5221 12.9702 16.1697 11.5711 14.5013 11.5711C12.8329 11.5711 11.4805 12.9702 11.4805 14.6961C11.4805 16.422 12.8329 17.8211 14.5013 17.8211Z" fill="#202020"/>
<path fill-rule="evenodd" clip-rule="evenodd" d="M23.0455 5.23227C18.3267 0.350717 10.6759 0.350717 5.9571 5.23227C1.23826 10.1138 1.23826 18.0284 5.9571 22.9099L5.99057 22.9444L12.4861 29.664C13.5991 30.8154 15.4037 30.8154 16.5167 29.664L23.0456 22.9099C27.7643 18.0284 27.7643 10.1138 23.0455 5.23227ZM7.23873 6.5581C11.2497 2.40878 17.7529 2.40878 21.7639 6.5581C25.7749 10.7074 25.7749 17.4348 21.764 21.5841L15.2351 28.3381C14.8299 28.7573 14.1729 28.7573 13.7677 28.3381L7.26974 21.6161L7.26727 21.6135L7.23873 21.5841C3.22772 17.4348 3.22772 10.7074 7.23873 6.5581Z" fill="#202020"/>
</svg>
