<svg width="28" height="29" viewBox="0 0 28 29" fill="none" xmlns="http://www.w3.org/2000/svg">
<path fill-rule="evenodd" clip-rule="evenodd" d="M2.04167 4.44611C0.914085 4.44611 0 5.36019 0 6.48777V22.8211C0 23.9487 0.914085 24.8628 2.04167 24.8628H25.9583C27.0859 24.8628 28 23.9487 28 22.8211V6.48777C28 5.36019 27.0859 4.44611 25.9583 4.44611H2.04167ZM1.75 6.48777C1.75 6.32669 1.88058 6.19611 2.04167 6.19611H25.9583C26.1194 6.19611 26.25 6.32669 26.25 6.48777V7.48127L14.1633 15.648C14.0646 15.7146 13.9353 15.7146 13.8367 15.648L1.75 7.48131V6.48777ZM1.75 9.59334V22.8211C1.75 22.9822 1.88058 23.1128 2.04167 23.1128H25.9583C26.1194 23.1128 26.25 22.9822 26.25 22.8211V9.59329L15.143 17.098C14.4524 17.5646 13.5475 17.5646 12.8569 17.098L1.75 9.59334Z" fill="#202020"/>
</svg>
