<svg width="21" height="24" viewBox="0 0 21 24" fill="none" xmlns="http://www.w3.org/2000/svg">
<path fill-rule="evenodd" clip-rule="evenodd" d="M10.4997 0.851074C6.9559 0.851074 4.08311 3.72393 4.08311 7.26774C4.08311 9.47211 5.19467 11.4169 6.88785 12.5721C2.96254 14.01 0.135024 17.7245 0.00430116 22.1167C-0.0100751 22.5997 0.369848 23.003 0.852883 23.0174C1.33592 23.0317 1.73915 22.6518 1.75353 22.1688C1.89369 17.4594 5.75594 13.6844 10.4996 13.6844C15.2432 13.6844 19.1055 17.4594 19.2456 22.1688C19.26 22.6518 19.6632 23.0317 20.1463 23.0174C20.6293 23.003 21.0092 22.5997 20.9949 22.1167C20.8641 17.7246 18.0367 14.0101 14.1114 12.5721C15.8047 11.4169 16.9163 9.47215 16.9163 7.26774C16.9163 3.72393 14.0435 0.851074 10.4997 0.851074ZM5.83311 7.26774C5.83311 4.6904 7.92242 2.60107 10.4997 2.60107C13.077 2.60107 15.1663 4.6904 15.1663 7.26774C15.1663 9.84508 13.077 11.9344 10.4997 11.9344C7.92242 11.9344 5.83311 9.84508 5.83311 7.26774Z" fill="#24292E"/>
</svg>
