<svg width="39" height="40" viewBox="0 0 39 40" fill="none" xmlns="http://www.w3.org/2000/svg">
<path fill-rule="evenodd" clip-rule="evenodd" d="M3.31904 15.9728C3.52396 15.3647 4.0719 14.9374 4.71168 14.8868L29.6226 12.9188C30.1366 12.8782 30.6281 13.1367 30.8859 13.5832C31.1437 14.0297 31.1218 14.5847 30.8297 15.0095L16.6698 35.599C16.3062 36.1278 15.6622 36.3886 15.033 36.262C14.4928 36.1533 14.0464 35.7748 13.8508 35.2596L10.1636 25.5473L3.59604 17.4979C3.2477 17.0709 3.14309 16.495 3.31904 15.9728ZM12.0135 25.4896L15.3871 34.3758L28.8968 14.7316L5.12961 16.6093L11.1385 23.974L18.5766 19.6796C18.9951 19.438 19.5303 19.5814 19.7719 19.9999C20.0135 20.4184 19.8701 20.9535 19.4516 21.1952L12.0135 25.4896Z" fill="white"/>
</svg>
