<svg width="28" height="28" viewBox="0 0 28 28" fill="none" xmlns="http://www.w3.org/2000/svg">
<path fill-rule="evenodd" clip-rule="evenodd" d="M4.08348 9.33334C4.08348 5.78952 6.95626 2.91667 10.5001 2.91667C14.0438 2.91667 16.9166 5.78952 16.9166 9.33334C16.9166 11.5377 15.805 13.4825 14.1118 14.6377C18.0371 16.0757 20.8645 19.7901 20.9952 24.1823C21.0096 24.6653 20.6297 25.0686 20.1466 25.083C19.6636 25.0973 19.2604 24.7174 19.246 24.2344C19.1058 19.525 15.2436 15.75 10.4999 15.75C5.7563 15.75 1.89405 19.525 1.75389 24.2344C1.73952 24.7174 1.33628 25.0973 0.853249 25.083C0.370214 25.0686 -0.00970894 24.6653 0.00466737 24.1823C0.13539 19.7901 2.9629 16.0756 6.88822 14.6377C5.19503 13.4825 4.08348 11.5377 4.08348 9.33334ZM10.5001 4.66667C7.92279 4.66667 5.83348 6.756 5.83348 9.33334C5.83348 11.9107 7.92279 14 10.5001 14C13.0773 14 15.1666 11.9107 15.1666 9.33334C15.1666 6.756 13.0773 4.66667 10.5001 4.66667Z" fill="#333333"/>
<path d="M20.1717 9.33334C19.9994 9.33334 19.8305 9.3456 19.6657 9.36917C19.1873 9.4376 18.744 9.10526 18.6756 8.62688C18.6072 8.1485 18.9395 7.70522 19.4179 7.6368C19.6645 7.60153 19.9163 7.58334 20.1717 7.58334C23.0905 7.58334 25.4566 9.94953 25.4566 12.8683C25.4566 14.5901 24.6331 16.1185 23.3609 17.0828C26.0809 18.3021 27.9766 21.0329 27.9766 24.2083C27.9766 24.6916 27.5849 25.0833 27.1016 25.0833C26.6184 25.0833 26.2266 24.6916 26.2266 24.2083C26.2266 21.4715 24.4102 19.1566 21.9151 18.4079L21.2916 18.2208V16.2655L21.7703 16.0223C22.9212 15.4375 23.7066 14.2439 23.7066 12.8683C23.7066 10.916 22.124 9.33334 20.1717 9.33334Z" fill="#333333"/>
</svg>
