<svg width="18" height="17" viewBox="0 0 18 17" fill="none" xmlns="http://www.w3.org/2000/svg">
<path d="M16.4434 12.4862V14.7362C16.4443 14.9451 16.4015 15.1518 16.3178 15.3432C16.2341 15.5346 16.1114 15.7064 15.9575 15.8476C15.8036 15.9888 15.6219 16.0963 15.424 16.1632C15.2261 16.2302 15.0165 16.255 14.8084 16.2362C12.5006 15.9854 10.2837 15.1968 8.33593 13.9337C6.5238 12.7822 4.98743 11.2458 3.83593 9.43372C2.56841 7.47712 1.77961 5.24946 1.53343 2.93122C1.51469 2.72382 1.53934 2.51479 1.60581 2.31743C1.67228 2.12008 1.77911 1.93873 1.91951 1.78493C2.0599 1.63113 2.23078 1.50825 2.42127 1.42411C2.61176 1.33997 2.81769 1.29641 3.02593 1.29622H5.27593C5.63991 1.29263 5.99278 1.42152 6.26875 1.65886C6.54473 1.89621 6.72499 2.2258 6.77593 2.58622C6.8709 3.30627 7.04702 4.01326 7.30093 4.69372C7.40184 4.96216 7.42368 5.2539 7.36386 5.53438C7.30404 5.81485 7.16508 6.0723 6.96343 6.27622L6.01093 7.22872C7.0786 9.10637 8.63327 10.661 10.5109 11.7287L11.4634 10.7762C11.6673 10.5746 11.9248 10.4356 12.2053 10.3758C12.4857 10.316 12.7775 10.3378 13.0459 10.4387C13.7264 10.6926 14.4334 10.8687 15.1534 10.9637C15.5178 11.0151 15.8505 11.1986 16.0883 11.4793C16.3262 11.7601 16.4526 12.1184 16.4434 12.4862Z" stroke="#4567AA" stroke-width="1.2" stroke-linecap="round" stroke-linejoin="round"/>
</svg>
