<svg width="24" height="24" viewBox="0 0 24 24" fill="none" xmlns="http://www.w3.org/2000/svg">
<path fill-rule="evenodd" clip-rule="evenodd" d="M11.75 23C11.3358 23 11 22.6642 11 22.25L11 3.75C11 3.33579 11.3358 3 11.75 3C12.1642 3 12.5 3.33579 12.5 3.75L12.5 22.25C12.5 22.6642 12.1642 23 11.75 23Z" fill="#333333"/>
<path fill-rule="evenodd" clip-rule="evenodd" d="M2 12.75C2 12.3358 2.33579 12 2.75 12H21.25C21.6642 12 22 12.3358 22 12.75C22 13.1642 21.6642 13.5 21.25 13.5H2.75C2.33579 13.5 2 13.1642 2 12.75Z" fill="#333333"/>
</svg>
