<svg width="30" height="30" viewBox="0 0 30 30" fill="none" xmlns="http://www.w3.org/2000/svg">
<path fill-rule="evenodd" clip-rule="evenodd" d="M11.5625 1.25C5.86706 1.25 1.25 5.86706 1.25 11.5625C1.25 17.2579 5.86706 21.875 11.5625 21.875C14.0727 21.875 16.3733 20.9782 18.1616 19.4874L25.2746 26.6004C25.6407 26.9665 26.2343 26.9665 26.6004 26.6004C26.9665 26.2343 26.9665 25.6407 26.6004 25.2746L19.4874 18.1616C20.9782 16.3733 21.875 14.0727 21.875 11.5625C21.875 5.86706 17.2579 1.25 11.5625 1.25ZM3.125 11.5625C3.125 6.9026 6.9026 3.125 11.5625 3.125C16.2224 3.125 20 6.9026 20 11.5625C20 16.2224 16.2224 20 11.5625 20C6.9026 20 3.125 16.2224 3.125 11.5625Z" fill="white"/>
</svg>
