<svg width="29" height="25" viewBox="0 0 29 25" fill="none" xmlns="http://www.w3.org/2000/svg">
<path fill-rule="evenodd" clip-rule="evenodd" d="M0.319037 3.97282C0.523962 3.36466 1.0719 2.93736 1.71167 2.88682L26.6226 0.918823C27.1366 0.878218 27.6281 1.13673 27.8859 1.58323C28.1437 2.02972 28.1218 2.58465 27.8297 3.00946L13.6698 23.599C13.3062 24.1278 12.6622 24.3886 12.033 24.262C11.4928 24.1533 11.0464 23.7748 10.8508 23.2596L7.16356 13.5473L0.596038 5.49785C0.247702 5.07092 0.143092 4.49499 0.319037 3.97282ZM9.01352 13.4896L12.3871 22.3758L25.8968 2.73161L2.12961 4.60925L8.13852 11.974L15.5766 7.67962C15.9951 7.43799 16.5303 7.58139 16.7719 7.99989C17.0135 8.4184 16.8701 8.95354 16.4516 9.19516L9.01352 13.4896Z" fill="white"/>
</svg>
