<svg width="47" height="46" viewBox="0 0 47 46" fill="none" xmlns="http://www.w3.org/2000/svg">
<g clip-path="url(#clip0_513_4860)">
<path d="M0.624023 21.6166C0.624023 11.4342 0.624023 6.3431 3.85756 3.17985C7.09111 0.0166016 12.2954 0.0166016 22.704 0.0166016H24.544C34.9527 0.0166016 40.1569 0.0166016 43.3905 3.17985C46.624 6.3431 46.624 11.4342 46.624 21.6166V23.4166C46.624 33.599 46.624 38.6901 43.3905 41.8534C40.1569 45.0166 34.9527 45.0166 24.544 45.0166H22.704C12.2954 45.0166 7.09111 45.0166 3.85756 41.8534C0.624023 38.6901 0.624023 33.599 0.624023 23.4166V21.6166Z" fill="#4567AA"/>
<path d="M25.0212 32.4166C14.3341 32.4166 8.23837 25.322 7.98438 13.5166H13.3377C13.5136 22.1815 17.4601 25.8517 20.5862 26.6085V13.5166H25.6271V20.9896C28.7141 20.668 31.957 17.2625 33.0511 13.5166H38.0919C37.2518 18.1328 33.735 21.5382 31.2341 22.9382C33.735 24.0734 37.7404 27.0436 39.2644 32.4166H33.7154C32.5236 28.822 29.5542 26.0409 25.6271 25.6625V32.4166H25.0212Z" fill="white"/>
</g>
<defs>
<clipPath id="clip0_513_4860">
<rect width="46" height="45" fill="white" transform="translate(0.624023 0.0166016)"/>
</clipPath>
</defs>
</svg>
