<svg width="46" height="46" viewBox="0 0 46 46" fill="none" xmlns="http://www.w3.org/2000/svg">
<g clip-path="url(#clip0_513_4861)">
<path d="M18.624 29.5767V16.4564L30.324 23.0166L18.624 29.5767Z" fill="white"/>
<path d="M44.6746 12.4939C44.4186 11.5697 43.9171 10.7271 43.2205 10.0503C42.5239 9.37357 41.6565 8.88644 40.7052 8.63768C37.2018 7.71655 23.124 7.71655 23.124 7.71655C23.124 7.71655 9.04621 7.71655 5.54283 8.63768C4.59151 8.88644 3.72414 9.37357 3.02752 10.0503C2.33089 10.7271 1.82946 11.5697 1.5734 12.4939C0.919236 15.9649 0.601791 19.4879 0.625233 23.0166C0.601791 26.5452 0.919236 30.0682 1.5734 33.5392C1.82946 34.4634 2.33089 35.306 3.02752 35.9828C3.72414 36.6595 4.59151 37.1467 5.54283 37.3954C9.04621 38.3165 23.124 38.3165 23.124 38.3165C23.124 38.3165 37.2018 38.3165 40.7052 37.3954C41.6565 37.1467 42.5239 36.6595 43.2205 35.9828C43.9171 35.306 44.4186 34.4634 44.6746 33.5392C45.3288 30.0682 45.6463 26.5452 45.6228 23.0166C45.6463 19.4879 45.3288 15.9649 44.6746 12.4939ZM18.6243 29.5737V16.4594L30.3076 23.0166L18.6243 29.5737Z" fill="#4567AA"/>
</g>
<defs>
<clipPath id="clip0_513_4861">
<rect width="45" height="45" fill="white" transform="translate(0.624023 0.516602)"/>
</clipPath>
</defs>
</svg>
