<svg width="46" height="46" viewBox="0 0 46 46" fill="none" xmlns="http://www.w3.org/2000/svg">
<g clip-path="url(#clip0_513_4862)">
<path d="M0.624023 22.5166C0.624023 10.0902 10.6976 0.0166016 23.124 0.0166016C35.5504 0.0166016 45.624 10.0902 45.624 22.5166C45.624 34.943 35.5504 45.0166 23.124 45.0166C10.6976 45.0166 0.624023 34.943 0.624023 22.5166Z" fill="#4567AA"/>
<path fill-rule="evenodd" clip-rule="evenodd" d="M22.6687 0.0166016C22.5624 9.27326 21.9571 14.4537 18.5091 17.9017C15.0611 21.3497 9.88068 21.955 0.624023 22.0613V23.4046C9.88068 23.5109 15.0611 24.1162 18.5091 27.5642C21.903 30.958 22.5427 36.0305 22.6633 45.0166H24.0174C24.138 36.0305 24.7777 30.958 28.1716 27.5642C31.5655 24.1703 36.6379 23.5305 45.624 23.41V22.0558C36.6379 21.9353 31.5655 21.2956 28.1716 17.9017C24.7236 14.4537 24.1183 9.27326 24.0121 0.0166016H22.6687Z" fill="white"/>
</g>
<defs>
<clipPath id="clip0_513_4862">
<rect width="45" height="45" fill="white" transform="translate(0.624023 0.0166016)"/>
</clipPath>
</defs>
</svg>
