<svg width="142" height="211" viewBox="0 0 142 211" fill="none" xmlns="http://www.w3.org/2000/svg">
<circle cx="133" cy="9.00024" r="9" transform="rotate(-180 133 9.00024)" fill="#4666A9"/>
<circle cx="133" cy="45.0002" r="9" transform="rotate(-180 133 45.0002)" fill="#4666A9"/>
<circle cx="133" cy="81.0002" r="9" transform="rotate(-180 133 81.0002)" fill="#4666A9"/>
<circle opacity="0.5" cx="94" cy="101" r="9" transform="rotate(-180 94 101)" fill="#4666A9"/>
<circle opacity="0.5" cx="94" cy="136" r="9" transform="rotate(-180 94 136)" fill="#4666A9"/>
<circle cx="94" cy="202" r="9" transform="rotate(-180 94 202)" fill="#4666A9"/>
<circle opacity="0.5" cx="94" cy="169" r="9" transform="rotate(-180 94 169)" fill="#4666A9"/>
<circle r="12" transform="matrix(-1 0 0 1 94 58.0002)" fill="#4666A9"/>
<circle opacity="0.5" r="12" transform="matrix(-1 0 0 1 55 97.0002)" fill="#4666A9"/>
<circle opacity="0.5" r="12" transform="matrix(-1 0 0 1 55 136)" fill="#4666A9"/>
<circle cx="10" cy="136" r="10" fill="#4666A9"/>
</svg>
