<svg width="824" height="283" viewBox="0 0 824 283" fill="none" xmlns="http://www.w3.org/2000/svg">
<path d="M247.806 245.357V241.857C251.073 241.857 253.523 241.39 255.156 240.457C257.023 239.29 258.306 237.89 259.006 236.257C259.94 234.39 260.406 232.407 260.406 230.307C260.64 227.973 260.756 225.64 260.756 223.307V189.007H165.206L283.506 21.3568V171.507H304.856V189.007H283.506V223.307C283.506 227.973 284.323 232.29 285.956 236.257C287.823 239.99 291.556 241.857 297.156 241.857V245.357H247.806ZM260.756 73.5068C249.09 90.0735 237.423 106.407 225.756 122.507C214.323 138.607 202.773 154.94 191.106 171.507H260.756V73.5068ZM331.079 136.857C331.079 118.89 333.296 103.023 337.729 89.2568C342.396 75.4901 348.462 64.0568 355.929 54.9568C363.396 45.6235 371.796 38.6235 381.129 33.9568C390.696 29.0568 400.379 26.6068 410.179 26.6068C419.979 26.6068 429.662 29.0568 439.229 33.9568C448.796 38.6235 457.196 45.6235 464.429 54.9568C471.896 64.0568 477.846 75.4901 482.279 89.2568C486.946 103.023 489.279 118.89 489.279 136.857C489.279 155.057 486.946 171.157 482.279 185.157C477.846 198.923 471.896 210.59 464.429 220.157C457.196 229.49 448.796 236.607 439.229 241.507C429.662 246.407 419.979 248.857 410.179 248.857C400.379 248.857 390.696 246.407 381.129 241.507C371.796 236.607 363.396 229.49 355.929 220.157C348.462 210.59 342.396 198.923 337.729 185.157C333.296 171.157 331.079 155.057 331.079 136.857ZM467.229 145.957C467.229 129.157 465.362 114.34 461.629 101.507C457.896 88.4401 452.996 77.5901 446.929 68.9568C441.096 60.0901 434.329 53.4401 426.629 49.0068C419.162 44.3401 411.462 42.0068 403.529 42.0068C395.596 42.0068 388.362 44.3401 381.829 49.0068C375.529 53.4401 370.162 59.3901 365.729 66.8568C361.296 74.3235 357.796 82.9568 355.229 92.7568C352.896 102.557 351.729 112.823 351.729 123.557C351.729 136.39 353.246 149.457 356.279 162.757C359.312 175.823 363.629 187.723 369.229 198.457C374.829 208.957 381.479 217.59 389.179 224.357C397.112 231.123 405.746 234.507 415.079 234.507C421.846 234.507 428.379 232.64 434.679 228.907C440.979 224.94 446.462 219.223 451.129 211.757C456.029 204.29 459.879 195.073 462.679 184.107C465.712 173.14 467.229 160.423 467.229 145.957ZM595.4 245.357V241.857C598.667 241.857 601.117 241.39 602.75 240.457C604.617 239.29 605.9 237.89 606.6 236.257C607.533 234.39 608 232.407 608 230.307C608.233 227.973 608.35 225.64 608.35 223.307V189.007H512.8L631.1 21.3568V171.507H652.45V189.007H631.1V223.307C631.1 227.973 631.917 232.29 633.55 236.257C635.417 239.99 639.15 241.857 644.75 241.857V245.357H595.4ZM608.35 73.5068C596.683 90.0735 585.017 106.407 573.35 122.507C561.917 138.607 550.367 154.94 538.7 171.507H608.35V73.5068Z" fill="#4567AA"/>
<circle opacity="0.5" r="9" transform="matrix(1 0 0 -1 699 145.357)" fill="#4666A9"/>
<circle r="9" transform="matrix(1 0 0 -1 699 181.357)" fill="#4666A9"/>
<circle r="9" transform="matrix(1 0 0 -1 736 197.857)" fill="#4666A9"/>
<circle r="9" transform="matrix(1 0 0 -1 736 235.357)" fill="#4666A9"/>
<circle opacity="0.5" cx="774" cy="197.857" r="12" fill="#4666A9"/>
<circle opacity="0.5" cx="774" cy="235.357" r="12" fill="#4666A9"/>
<circle opacity="0.5" r="9" transform="matrix(1 0 0 -1 736 273.357)" fill="#4666A9"/>
<circle opacity="0.5" cx="814" cy="235.357" r="10" fill="#4666A9"/>
<circle cx="133.695" cy="9.35681" r="9" transform="rotate(-180 133.695 9.35681)" fill="#4666A9"/>
<circle cx="133.695" cy="45.3568" r="9" transform="rotate(-180 133.695 45.3568)" fill="#4666A9"/>
<circle cx="133.695" cy="81.3568" r="9" transform="rotate(-180 133.695 81.3568)" fill="#4666A9"/>
<circle opacity="0.5" cx="94.6953" cy="101.357" r="9" transform="rotate(-180 94.6953 101.357)" fill="#4666A9"/>
<circle opacity="0.5" cx="94.6953" cy="136.357" r="9" transform="rotate(-180 94.6953 136.357)" fill="#4666A9"/>
<circle cx="94.6953" cy="202.357" r="9" transform="rotate(-180 94.6953 202.357)" fill="#4666A9"/>
<circle opacity="0.5" cx="94.6953" cy="169.357" r="9" transform="rotate(-180 94.6953 169.357)" fill="#4666A9"/>
<circle r="12" transform="matrix(-1 0 0 1 94.6953 58.3568)" fill="#4666A9"/>
<circle opacity="0.5" r="12" transform="matrix(-1 0 0 1 55.6953 97.3568)" fill="#4666A9"/>
<circle opacity="0.5" r="12" transform="matrix(-1 0 0 1 55.6953 136.357)" fill="#4666A9"/>
<circle cx="10.6953" cy="136.357" r="10" fill="#4666A9"/>
</svg>
