<svg width="177" height="24" viewBox="0 0 177 24" fill="none" xmlns="http://www.w3.org/2000/svg">
<path fill-rule="evenodd" clip-rule="evenodd" d="M164.985 0.25C165.271 0.25 165.531 0.412074 165.658 0.668076L168.716 6.8649L175.555 7.85861C175.837 7.89966 176.072 8.09754 176.16 8.36905C176.248 8.64056 176.175 8.93861 175.97 9.13788L171.022 13.9614L172.19 20.7724C172.238 21.0538 172.123 21.3381 171.892 21.5059C171.661 21.6738 171.354 21.6959 171.102 21.563L164.985 18.3473L158.868 21.563C158.616 21.6959 158.31 21.6738 158.079 21.5059C157.848 21.3381 157.732 21.0538 157.78 20.7724L158.948 13.9614L154 9.13788C153.796 8.93861 153.722 8.64056 153.81 8.36905C153.898 8.09754 154.133 7.89966 154.416 7.85861L161.254 6.8649L164.313 0.668076C164.439 0.412074 164.7 0.25 164.985 0.25ZM164.985 2.69466L162.425 7.88233C162.316 8.10369 162.104 8.25712 161.86 8.29261L156.135 9.12449L160.278 13.1625C160.455 13.3348 160.535 13.5831 160.493 13.8264L159.516 19.5282L164.636 16.8362C164.855 16.7213 165.116 16.7213 165.334 16.8362L170.455 19.5282L169.477 13.8264C169.435 13.5831 169.516 13.3348 169.692 13.1625L173.835 9.12449L168.11 8.29261C167.866 8.25712 167.655 8.10369 167.545 7.88233L164.985 2.69466Z" fill="#4567AA"/>
<path d="M127.658 0.668076C127.531 0.412074 127.271 0.25 126.985 0.25C126.7 0.25 126.439 0.412074 126.313 0.668076L123.254 6.8649L116.416 7.85861C116.133 7.89966 115.898 8.09754 115.81 8.36905C115.722 8.64056 115.796 8.93861 116 9.13788L120.948 13.9614L119.78 20.7724C119.732 21.0538 119.848 21.3381 120.079 21.5059C120.31 21.6738 120.616 21.6959 120.868 21.563L126.985 18.3473L133.102 21.563C133.354 21.6959 133.661 21.6738 133.892 21.5059C134.123 21.3381 134.238 21.0538 134.19 20.7724L133.022 13.9614L137.97 9.13788C138.175 8.93861 138.248 8.64056 138.16 8.36905C138.072 8.09754 137.837 7.89966 137.555 7.85861L130.716 6.8649L127.658 0.668076Z" fill="#4567AA"/>
<path d="M89.6576 0.668076C89.5313 0.412074 89.2706 0.25 88.9851 0.25C88.6996 0.25 88.4389 0.412074 88.3125 0.668076L85.2542 6.8649L78.4156 7.85861C78.1331 7.89966 77.8984 8.09754 77.8102 8.36905C77.7219 8.64056 77.7955 8.93861 78 9.13788L82.9484 13.9614L81.7802 20.7724C81.732 21.0538 81.8476 21.3381 82.0786 21.5059C82.3096 21.6738 82.6158 21.6959 82.8684 21.563L88.9851 18.3473L95.1017 21.563C95.3544 21.6959 95.6606 21.6738 95.8916 21.5059C96.1225 21.3381 96.2382 21.0538 96.1899 20.7724L95.0218 13.9614L99.9702 9.13788C100.175 8.93861 100.248 8.64056 100.16 8.36905C100.072 8.09754 99.8371 7.89966 99.5546 7.85861L92.7159 6.8649L89.6576 0.668076Z" fill="#4567AA"/>
<path d="M51.6576 0.668076C51.5313 0.412074 51.2706 0.25 50.9851 0.25C50.6996 0.25 50.4389 0.412074 50.3125 0.668076L47.2542 6.8649L40.4156 7.85861C40.1331 7.89966 39.8984 8.09754 39.8102 8.36905C39.7219 8.64056 39.7955 8.93861 40 9.13788L44.9484 13.9614L43.7802 20.7724C43.732 21.0538 43.8476 21.3381 44.0786 21.5059C44.3096 21.6738 44.6158 21.6959 44.8684 21.563L50.9851 18.3473L57.1017 21.563C57.3544 21.6959 57.6606 21.6738 57.8916 21.5059C58.1225 21.3381 58.2382 21.0538 58.1899 20.7724L57.0218 13.9614L61.9702 9.13788C62.1746 8.93861 62.2482 8.64056 62.16 8.36905C62.0718 8.09754 61.8371 7.89966 61.5546 7.85861L54.7159 6.8649L51.6576 0.668076Z" fill="#4567AA"/>
<path d="M13.6576 0.668076C13.5313 0.412074 13.2706 0.25 12.9851 0.25C12.6996 0.25 12.4389 0.412074 12.3125 0.668076L9.25421 6.8649L2.41561 7.85861C2.1331 7.89966 1.89839 8.09754 1.81017 8.36905C1.72195 8.64056 1.79552 8.93861 1.99995 9.13788L6.94841 13.9614L5.78024 20.7724C5.73198 21.0538 5.84764 21.3381 6.0786 21.5059C6.30956 21.6738 6.61576 21.6959 6.86845 21.563L12.9851 18.3473L19.1017 21.563C19.3544 21.6959 19.6606 21.6738 19.8916 21.5059C20.1225 21.3381 20.2382 21.0538 20.1899 20.7724L19.0218 13.9614L23.9702 9.13788C24.1746 8.93861 24.2482 8.64056 24.16 8.36905C24.0718 8.09754 23.8371 7.89966 23.5546 7.85861L16.7159 6.8649L13.6576 0.668076Z" fill="#4567AA"/>
</svg>
