<svg width="64" height="64" viewBox="0 0 64 64" fill="#FFE700" xmlns="http://www.w3.org/2000/svg">
<rect width="64" height="64" fill="none"/>
<circle cx="32" cy="32" r="32" fill="#4567AA"/>
<path d="M45.8409 20.2138C44.4481 17.6211 42.5046 15.591 40.0378 14.0999C37.5631 12.6088 34.8917 11.8652 32.0079 11.8652C29.1319 11.8652 26.4527 12.6088 23.978 14.0999C21.4915 15.591 19.5598 17.625 18.1553 20.2138C16.7547 22.7947 16.0504 25.5998 16.0504 28.6174C16.0504 31.5996 16.735 34.3694 18.1002 36.9424C18.8556 38.3627 19.7762 39.6295 20.8857 40.739H25.3235C23.2541 39.4682 21.6489 37.7489 20.4962 35.5929C19.3513 33.4173 18.7729 31.0921 18.7729 28.6096C18.7729 26.1585 19.3316 23.8609 20.4686 21.7128C21.5938 19.5725 23.203 17.8611 25.2803 16.5746C27.3497 15.2959 29.5922 14.6507 32.0079 14.6507C34.3685 14.6507 36.5795 15.2802 38.6293 16.5234C40.6869 17.7745 42.2961 19.4702 43.4764 21.6262C44.6488 23.7743 45.235 26.1074 45.235 28.6096C45.235 31.1393 44.6409 33.4802 43.4606 35.648C42.2882 37.7883 40.6987 39.4918 38.6686 40.7429H43.1223C44.2396 39.6256 45.172 38.3391 45.9274 36.8991C47.2769 34.3261 47.9496 31.5642 47.9496 28.6174C47.9457 25.5998 47.2415 22.7986 45.8409 20.2138Z" fill="#FFE700"/>
<path d="M20.8738 46.4384V44.1211H43.1261V46.4384H20.8738Z" fill="#FFE700"/>
<path d="M25.3392 52.1347V49.8174H38.6607V52.1347H25.3392Z" fill="#FFE700"/>
</svg>
