<svg width="154" height="32" viewBox="0 0 154 32" fill="none" xmlns="http://www.w3.org/2000/svg">
<path d="M0.702114 17.5979V17.662C0.983579 20.7302 3.89577 23.0488 7.52973 23.0488C11.5706 23.0488 13.761 21.4186 13.761 18.4144C13.761 15.9091 11.6932 14.1228 6.55714 12.3086C3.05137 11.0211 1.20373 8.83067 1.20373 5.91848C1.20373 2.9422 3.99052 0.84375 7.9366 0.84375C11.3504 0.84375 13.761 2.40992 14.9509 5.32211L14.3239 5.66767C13.29 3.03695 11.0996 1.62684 7.9366 1.62684C4.86835 1.62684 2.95662 2.97285 2.95662 5.10195C2.95662 7.16974 4.49214 8.73592 7.78054 10.0206C11.7266 11.4614 15.8288 13.0582 15.8288 17.6007C15.8288 21.2653 12.3843 23.8319 7.52973 23.8319C4.21067 23.8319 0.481958 21.8895 0.0444336 17.7874L0.702114 17.5979Z" fill="#4666A9"/>
<path d="M16.6396 23.5504L25.8778 4.22688L24.9693 2.09778C24.8746 1.97238 24.908 1.72157 25.0947 1.66026C25.9726 1.34535 26.4714 1.00258 26.6916 0.595705C26.817 0.500955 26.9117 0.500955 27.0371 0.629147L36.6822 23.5532H34.0515L31.0752 16.5389H20.7724L17.4199 23.5532H16.6396V23.5504ZM21.1514 15.7502H30.7658L26.2262 5.07128L21.1514 15.7502Z" fill="#4666A9"/>
<path d="M38.7471 23.517V1.12521H40.0318L55.9415 19.5709V1.12521H56.5992V23.2662C56.5992 23.6424 56.2564 23.7678 56.0056 23.4557L39.4382 4.19625V23.5198H38.7471V23.517Z" fill="#4666A9"/>
<path d="M59.5396 1.9083V1.12521H76.5445V1.9083H69.4048V23.5477H66.9329V1.9083H59.5396Z" fill="#4666A9"/>
<path d="M101.679 23.5504V1.12521H108.256C114.205 1.12521 117.026 2.8781 117.026 6.63747C117.026 9.48835 114.832 11.4279 111.137 12.0856L116.995 23.5477H114.144L108.601 12.3058H104.12L104.151 23.5477H101.679V23.5504ZM104.12 11.5227H108.66C112.135 11.5227 114.202 9.67506 114.202 6.63747C114.202 3.41038 112.355 1.9083 108.345 1.9083H104.304C104.178 2.53533 104.114 3.81725 104.114 5.38342V11.5227H104.12Z" fill="#4666A9"/>
<path d="M120.875 23.5504V1.12521H123.346V23.5477H120.875V23.5504Z" fill="#4666A9"/>
<path d="M128.292 23.517V1.12521H129.577L145.486 19.5709V1.12521H146.144V23.2662C146.144 23.6424 145.801 23.7678 145.551 23.4557L128.983 4.19625V23.5198H128.292V23.517Z" fill="#4666A9"/>
<path d="M151.088 23.5504V1.12521H153.563V23.5477H151.088V23.5504Z" fill="#4666A9"/>
<path d="M95.6889 9.00901C94.7024 7.17252 93.3257 5.73454 91.5784 4.67835C89.8255 3.62216 87.9333 3.09546 85.8906 3.09546C83.8535 3.09546 81.9557 3.62216 80.2028 4.67835C78.4415 5.73454 77.0732 7.17531 76.0783 9.00901C75.0862 10.8371 74.5874 12.8241 74.5874 14.9616C74.5874 17.074 75.0723 19.0358 76.0393 20.8584C76.5744 21.8644 77.2265 22.7618 78.0124 23.5477H81.1558C79.69 22.6475 78.553 21.4297 77.7365 19.9025C76.9255 18.3615 76.5159 16.7145 76.5159 14.956C76.5159 13.2198 76.9116 11.5924 77.717 10.0708C78.514 8.55476 79.6538 7.34251 81.1252 6.43124C82.591 5.52553 84.1795 5.0685 85.8906 5.0685C87.5627 5.0685 89.1288 5.51438 90.5807 6.39501C92.0382 7.2812 93.178 8.48231 94.0141 10.0095C94.8445 11.531 95.2597 13.1836 95.2597 14.956C95.2597 16.7479 94.8389 18.406 94.0029 19.9416C93.1725 21.4576 92.0466 22.6642 90.6086 23.5504H93.7632C94.5547 22.759 95.2152 21.8477 95.7502 20.8278C96.7061 19.0052 97.1826 17.0489 97.1826 14.9616C97.1798 12.8241 96.681 10.8399 95.6889 9.00901Z" fill="#FFE700"/>
<path d="M78.0044 28.0678V26.4264H93.7664V28.0678H78.0044Z" fill="#FFE700"/>
<path d="M81.1675 31.7185V30.0771H90.6035V31.7185H81.1675Z" fill="#FFE700"/>
</svg>
