<svg width="48" height="60" viewBox="0 0 48 60" fill="none" xmlns="http://www.w3.org/2000/svg">
<path d="M44.3892 12.6374C42.3375 8.81806 39.4744 5.82746 35.8405 3.63087C32.195 1.43429 28.2597 0.338898 24.0114 0.338898C19.7747 0.338898 15.8278 1.43429 12.1823 3.63087C8.51941 5.82746 5.67371 8.82385 3.60463 12.6374C1.54135 16.4395 0.503906 20.5718 0.503906 25.0171C0.503906 29.4103 1.51238 33.4905 3.5235 37.2809C4.63628 39.3732 5.99247 41.2394 7.62687 42.8738H14.1645C11.1159 41.0018 8.75125 38.4691 7.0531 35.293C5.36654 32.0879 4.51456 28.6627 4.51456 25.0056C4.51456 21.3948 5.33756 18.0101 7.01253 14.8456C8.67011 11.6927 11.0406 9.1716 14.1007 7.27639C17.1493 5.39278 20.4528 4.44228 24.0114 4.44228C27.4889 4.44228 30.7461 5.3696 33.7656 7.20105C36.7968 9.04409 39.1673 11.5421 40.906 14.7181C42.6331 17.8826 43.4967 21.3195 43.4967 25.0056C43.4967 28.7322 42.6215 32.1807 40.8828 35.3741C39.1557 38.527 36.8142 41.0366 33.8236 42.8796H40.3844C42.0304 41.2336 43.404 39.3384 44.5167 37.2172C46.5047 33.4268 47.4958 29.3582 47.4958 25.0171C47.49 20.5718 46.4525 16.4452 44.3892 12.6374Z" fill="#4666A9"/>
<path d="M7.60938 51.2704V47.8567H40.3901V51.2704H7.60938Z" fill="#4666A9"/>
<path d="M14.1875 59.6611V56.2474H33.8119V59.6611H14.1875Z" fill="#4666A9"/>
</svg>
