<svg width="19" height="19" viewBox="0 0 19 19" fill="none" xmlns="http://www.w3.org/2000/svg">
<path d="M0.730014 17.4094C0.398068 17.7413 0.398068 18.2795 0.730014 18.6115C1.06196 18.9434 1.60015 18.9434 1.9321 18.6115L0.730014 17.4094ZM18.4445 1.74698C18.4445 1.27754 18.064 0.896981 17.5945 0.896982L9.94451 0.896982C9.47507 0.896982 9.09451 1.27754 9.09451 1.74698C9.09451 2.21642 9.47507 2.59698 9.94451 2.59698L16.7445 2.59698L16.7445 9.39698C16.7445 9.86642 17.1251 10.247 17.5945 10.247C18.064 10.247 18.4445 9.86642 18.4445 9.39698L18.4445 1.74698ZM1.9321 18.6115L18.1956 2.34802L16.9935 1.14594L0.730014 17.4094L1.9321 18.6115Z" fill="white"/>
</svg>
